<svg viewBox="0 0 200 200" xmlns="http://www.w3.org/2000/svg">
  <path fill="#000030" d="M32,-52.7C40.1,-50.8,44.3,-39.4,51.6,-29C58.9,-18.7,69.2,-9.3,67.2,-1.2C65.1,7,50.7,13.9,44.7,26.5C38.7,39.1,41.2,57.3,35.1,62C29.1,66.7,14.5,57.8,2.5,53.4C-9.5,49,-18.9,49.1,-26.3,45.2C-33.7,41.3,-39,33.4,-50.9,25.2C-62.8,17.1,-81.3,8.5,-82.6,-0.7C-83.8,-10,-67.9,-20,-56.3,-28.8C-44.8,-37.6,-37.7,-45.3,-29,-46.9C-20.4,-48.5,-10.2,-44,0.9,-45.6C12,-47.1,23.9,-54.7,32,-52.7Z" transform="translate(100 100)" />
</svg>